<svg xmlns="http://www.w3.org/2000/svg" viewBox="0 0 163.08 133.17"><defs><style>.cls-1{fill:#abbcd3;}.cls-2{fill:#383856;}.cls-3{fill:#4a4a68;}.cls-4{fill:#3bc197;}.cls-5{fill:#f76b9a;}.cls-6{fill:#43ffff;}.cls-7{fill:#3c3c5b;}.cls-8{fill:#6f6f8e;}.cls-9{fill:#ff5f57;}.cls-10{fill:#febc2e;}.cls-11{fill:#29c940;}.cls-12{fill:#000201;}.cls-13,.cls-14{fill:#fff;}.cls-13{opacity:0.45;}.cls-13,.cls-15{isolation:isolate;}.cls-15{font-size:15.74px;font-family:Jost-Bold, Jost;font-weight:700;}</style></defs><g id="Layer_2" data-name="Layer 2"><g id="Layer_1-2" data-name="Layer 1"><rect class="cls-1" x="18.1" y="46.69" width="124.75" height="79.97" rx="8.99"/><rect class="cls-2" x="14.11" y="31.02" width="121.37" height="89.17" rx="5.09"/><polygon class="cls-3" points="75.58 30.99 58.19 120.22 51.06 120.22 68.46 30.99 75.58 30.99"/><polygon class="cls-3" points="108.67 30.93 91.37 120.16 74.79 120.16 92.19 30.93 108.67 30.93"/><polygon class="cls-3" points="121.08 30.93 103.68 120.16 96.56 120.16 113.96 30.93 121.08 30.93"/><path class="cls-3" d="M23.8,105.78a1.27,1.27,0,0,1-1.27-1.27V56.87a1.27,1.27,0,0,1,2.54,0v47.64A1.27,1.27,0,0,1,23.8,105.78Z"/><path class="cls-4" d="M70.84,55.93H29.91a1.21,1.21,0,0,1,0-2.42H70.84a1.21,1.21,0,0,1,0,2.42Z"/><path class="cls-5" d="M56.12,61.13H29.91a1.21,1.21,0,0,1,0-2.42H56.12a1.21,1.21,0,0,1,0,2.42Z"/><path class="cls-6" d="M45.7,66.61H29.91a1.21,1.21,0,0,1,0-2.42H45.7a1.21,1.21,0,1,1,0,2.42Z"/><path class="cls-6" d="M54.5,66.61H50.37a1.21,1.21,0,0,1,0-2.42H54.5a1.21,1.21,0,0,1,0,2.42Z"/><path class="cls-6" d="M65.93,66.61H60.31a1.21,1.21,0,0,1,0-2.42h5.62a1.21,1.21,0,0,1,0,2.42Z"/><path class="cls-4" d="M70.84,76.75H29.91a1.21,1.21,0,0,1,0-2.42H70.84a1.21,1.21,0,0,1,0,2.42Z"/><path class="cls-5" d="M56.12,82H29.91a1.21,1.21,0,0,1,0-2.42H56.12a1.21,1.21,0,1,1,0,2.42Z"/><path class="cls-6" d="M45.7,87.44H29.91a1.21,1.21,0,0,1,0-2.42H45.7a1.21,1.21,0,0,1,0,2.42Z"/><path class="cls-6" d="M54.5,87.44H50.37a1.21,1.21,0,0,1,0-2.42H54.5a1.21,1.21,0,0,1,0,2.42Z"/><path class="cls-6" d="M65.93,87.44H60.31a1.21,1.21,0,0,1,0-2.42h5.62a1.21,1.21,0,0,1,0,2.42Z"/><path class="cls-7" d="M70.84,71.74H29.91a1.27,1.27,0,1,1,0-2.54H70.84a1.27,1.27,0,0,1,0,2.54Z"/><path class="cls-7" d="M70.84,92.57H29.91a1.27,1.27,0,1,1,0-2.54H70.84a1.27,1.27,0,0,1,0,2.54Z"/><path class="cls-4" d="M70.84,97.58H29.91a1.21,1.21,0,1,1,0-2.42H70.84a1.21,1.21,0,0,1,0,2.42Z"/><path class="cls-5" d="M56.12,102.79H29.91a1.21,1.21,0,0,1,0-2.42H56.12a1.21,1.21,0,1,1,0,2.42Z"/><path class="cls-6" d="M45.7,108.26H29.91a1.21,1.21,0,0,1,0-2.42H45.7a1.21,1.21,0,1,1,0,2.42Z"/><path class="cls-6" d="M54.5,108.26H50.37a1.21,1.21,0,1,1,0-2.42H54.5a1.21,1.21,0,1,1,0,2.42Z"/><path class="cls-6" d="M65.93,108.26H60.31a1.21,1.21,0,1,1,0-2.42h5.62a1.21,1.21,0,1,1,0,2.42Z"/><path class="cls-8" d="M125.51,102.23h-21a.65.65,0,0,1,0-1.3h21a.65.65,0,1,1,0,1.3Z"/><path class="cls-8" d="M118,104.9H104.53a.65.65,0,0,1-.65-.65.66.66,0,0,1,.65-.66H118a.66.66,0,0,1,.65.66A.65.65,0,0,1,118,104.9Z"/><path class="cls-8" d="M112.63,107.71h-8.1a.66.66,0,0,1-.65-.66.65.65,0,0,1,.65-.65h8.1a.65.65,0,0,1,.65.65A.66.66,0,0,1,112.63,107.71Z"/><path class="cls-8" d="M117.14,107.71H115a.66.66,0,0,1-.65-.66.65.65,0,0,1,.65-.65h2.12a.65.65,0,0,1,.65.65A.66.66,0,0,1,117.14,107.71Z"/><path class="cls-8" d="M123,107.71h-2.88a.67.67,0,0,1-.66-.66.66.66,0,0,1,.66-.65H123a.65.65,0,0,1,.65.65A.66.66,0,0,1,123,107.71Z"/><path class="cls-8" d="M125.51,90.36h-21a.65.65,0,0,1,0-1.3h21a.65.65,0,1,1,0,1.3Z"/><path class="cls-8" d="M118,93H104.53a.65.65,0,0,1,0-1.3H118a.65.65,0,0,1,0,1.3Z"/><path class="cls-8" d="M112.63,95.84h-8.1a.65.65,0,0,1,0-1.3h8.1a.65.65,0,0,1,0,1.3Z"/><path class="cls-8" d="M117.14,95.84H115a.65.65,0,0,1,0-1.3h2.12a.65.65,0,0,1,0,1.3Z"/><path class="cls-8" d="M123,95.84h-2.88a.65.65,0,1,1,0-1.3H123a.65.65,0,0,1,0,1.3Z"/><path class="cls-8" d="M125.51,66.63h-21a.65.65,0,1,1,0-1.3h21a.65.65,0,1,1,0,1.3Z"/><path class="cls-8" d="M118,69.3H104.53a.65.65,0,1,1,0-1.3H118a.65.65,0,1,1,0,1.3Z"/><path class="cls-8" d="M112.63,72.11h-8.1a.66.66,0,0,1-.65-.66.65.65,0,0,1,.65-.65h8.1a.65.65,0,0,1,.65.65A.66.66,0,0,1,112.63,72.11Z"/><path class="cls-8" d="M117.14,72.11H115a.66.66,0,0,1-.65-.66.65.65,0,0,1,.65-.65h2.12a.65.65,0,0,1,.65.65A.66.66,0,0,1,117.14,72.11Z"/><path class="cls-8" d="M123,72.11h-2.88a.67.67,0,0,1-.66-.66.66.66,0,0,1,.66-.65H123a.65.65,0,0,1,.65.65A.66.66,0,0,1,123,72.11Z"/><path class="cls-8" d="M125.51,78.5h-21a.66.66,0,0,1-.65-.66.65.65,0,0,1,.65-.65h21a.66.66,0,0,1,.66.65A.67.67,0,0,1,125.51,78.5Z"/><path class="cls-8" d="M118,81.17H104.53a.66.66,0,0,1-.65-.66.65.65,0,0,1,.65-.65H118a.65.65,0,0,1,.65.65A.66.66,0,0,1,118,81.17Z"/><path class="cls-8" d="M112.63,84h-8.1a.65.65,0,0,1,0-1.3h8.1a.65.65,0,0,1,0,1.3Z"/><path class="cls-8" d="M117.14,84H115a.65.65,0,0,1,0-1.3h2.12a.65.65,0,0,1,0,1.3Z"/><path class="cls-8" d="M123,84h-2.88a.65.65,0,1,1,0-1.3H123a.65.65,0,0,1,0,1.3Z"/><path class="cls-8" d="M125.51,54.76h-21a.65.65,0,0,1,0-1.3h21a.65.65,0,1,1,0,1.3Z"/><path class="cls-8" d="M118,57.43H104.53a.65.65,0,0,1,0-1.3H118a.65.65,0,1,1,0,1.3Z"/><path class="cls-8" d="M112.63,60.24h-8.1a.65.65,0,0,1,0-1.3h8.1a.65.65,0,0,1,0,1.3Z"/><path class="cls-8" d="M117.14,60.24H115a.65.65,0,1,1,0-1.3h2.12a.65.65,0,0,1,0,1.3Z"/><path class="cls-8" d="M123,60.24h-2.88a.65.65,0,1,1,0-1.3H123a.65.65,0,0,1,0,1.3Z"/><circle class="cls-9" cx="23.8" cy="36.88" r="2.03"/><circle class="cls-10" cx="30.14" cy="36.88" r="2.03"/><circle class="cls-11" cx="36.49" cy="36.88" r="2.03"/><path class="cls-12" d="M130.39,121.4H19.19a6.3,6.3,0,0,1-6.29-6.3v-79a6.3,6.3,0,0,1,6.29-6.3h111.2a6.3,6.3,0,0,1,6.29,6.3v79A6.3,6.3,0,0,1,130.39,121.4ZM19.19,32.23a3.88,3.88,0,0,0-3.87,3.88v79A3.88,3.88,0,0,0,19.19,119h111.2a3.88,3.88,0,0,0,3.87-3.88v-79a3.88,3.88,0,0,0-3.87-3.88Z"/><path class="cls-12" d="M41.75,44H14.82a.75.75,0,0,1,0-1.5H41.75a.75.75,0,1,1,0,1.5Z"/><path class="cls-12" d="M134.55,44H48.7a.75.75,0,1,1,0-1.5h85.85a.75.75,0,0,1,0,1.5Z"/><rect class="cls-13" x="0.9" y="92.88" width="53.6" height="39.38" rx="2.25"/><path class="cls-12" d="M54.09,101.61H14.38a.91.91,0,0,1,0-1.81H54.09a.91.91,0,1,1,0,1.81Z"/><circle class="cls-9" cx="5.19" cy="96.82" r="0.9"/><circle class="cls-10" cx="7.99" cy="96.82" r="0.9"/><circle class="cls-11" cx="10.79" cy="96.82" r="0.9"/><polygon class="cls-14" points="44.45 92.89 36.81 132.26 29.5 132.26 37.17 92.89 44.45 92.89"/><polygon class="cls-14" points="49.92 92.89 42.25 132.26 39.1 132.26 46.78 92.89 49.92 92.89"/><path class="cls-12" d="M9,101.61H1.22a.91.91,0,0,1,0-1.81H9a.91.91,0,1,1,0,1.81Z"/><path class="cls-12" d="M52.26,133.17H3.15A3.16,3.16,0,0,1,0,130V95.13A3.15,3.15,0,0,1,3.15,92H52.26a3.16,3.16,0,0,1,3.15,3.15V130A3.16,3.16,0,0,1,52.26,133.17ZM3.15,93.79a1.34,1.34,0,0,0-1.34,1.34V130a1.34,1.34,0,0,0,1.34,1.34H52.26A1.34,1.34,0,0,0,53.6,130V95.13a1.34,1.34,0,0,0-1.34-1.34Z"/><circle class="cls-14" cx="140.32" cy="22.75" r="21.54"/><path class="cls-12" d="M140.32,45.51a22.76,22.76,0,1,1,22.76-22.76A22.78,22.78,0,0,1,140.32,45.51Zm0-43.09a20.34,20.34,0,1,0,20.34,20.33A20.35,20.35,0,0,0,140.32,2.42Z"/><text class="cls-15" transform="translate(125.46 26.69)">&lt;/&gt;</text></g></g></svg>