<svg xmlns="http://www.w3.org/2000/svg" viewBox="0 0 253.02 294.74"><defs><style>.cls-1{fill:#fff;}.cls-2{fill:#dff6ff;}.cls-3{fill:#e8f1f5;}.cls-4{fill:#aad4e2;opacity:0.25;}.cls-13,.cls-14,.cls-18,.cls-19,.cls-20,.cls-21,.cls-22,.cls-23,.cls-24,.cls-25,.cls-26,.cls-28,.cls-29,.cls-30,.cls-31,.cls-5,.cls-8{fill:none;stroke-linecap:round;stroke-linejoin:round;}.cls-19,.cls-20,.cls-5{stroke:#fff;}.cls-5{stroke-width:4px;}.cls-6{fill:#ecf3f6;}.cls-7{fill:#f56137;}.cls-8{stroke:#ffab97;}.cls-18,.cls-19,.cls-31,.cls-8{stroke-width:2px;}.cls-9{fill:#ffc000;}.cls-10{fill:#ffe92d;}.cls-11{fill:#fd6768;}.cls-12{fill:#e5353e;}.cls-13,.cls-14,.cls-21,.cls-22,.cls-23,.cls-24,.cls-25,.cls-26,.cls-29,.cls-30{stroke:#1f033c;}.cls-14{stroke-width:0.58px;}.cls-15{fill:#88d5ed;}.cls-16{fill:#baaba7;}.cls-17{fill:#6f605a;}.cls-18{stroke:#ffabaf;}.cls-20{stroke-width:3px;}.cls-21{stroke-width:0.79px;}.cls-22{stroke-width:0.76px;}.cls-23{stroke-width:0.71px;}.cls-24{stroke-width:0.59px;}.cls-25{stroke-width:0.82px;}.cls-26{stroke-width:0.73px;}.cls-27{fill:#1f033c;}.cls-28{stroke:#6f605a;}.cls-29{stroke-width:0.74px;}.cls-30{stroke-width:0.84px;}.cls-31{stroke:#b0c9d1;}</style></defs><g id="Layer_2" data-name="Layer 2"><g id="Layer_1-2" data-name="Layer 1"><path class="cls-1" d="M16.43,192.56l-14.65,8.1,18.81,34,2.43,4.4h0l.07.13,4.17,7.54,6.55,11.84h0l1,1.75,14.65-8.1Zm-3.86,27.58,0,0h0Z"/><path class="cls-2" d="M59.47,275c-5.23-15.31-23.42-22-32.46-35.39a34.91,34.91,0,0,1-1.49-35.71c2.92-5.24,7.18-9.63,10.22-14.81,9.41-16.07,5.88-37.33,15.45-53.3,7.79-13,24.25-20.18,39.09-17,3.88.83,7.64,2.29,11.59,2.75,4.82.56,9.67-.41,14.47-1.12,11.2-1.66,23-1.87,33.41,2.64,6.54,2.84,12.18,7.42,17.3,12.38,26.07,25.22,40.42,62.66,35.8,98.63-.79,6.15-2.1,12.23-2.68,18.4-.79,8.47-.18,17.05-1.34,25.49-.3,2.18-.77,4.47-2.24,6.12-1.67,1.89-4.3,2.57-6.78,3.06-10.88,2.14-22,2.45-33.11,2.76l-70.47,1.94"/><line class="cls-1" x1="187.12" y1="187.84" x2="178.14" y2="187.84"/><path class="cls-1" d="M173.87,187.84h-4.49a4.59,4.59,0,0,0-6.12-2.57s-.71-6.89-9.33-6.89-9.12,10.31-9.12,10.31h-3.17"/><line class="cls-1" x1="1.5" y1="182.25" x2="14.99" y2="182.25"/><path class="cls-1" d="M21.41,182.25h6.74s2.25-6.21,9.2-3.85c0,0,1.06-10.36,14-10.36s13.71,15.49,13.71,15.49h6.62"/><path class="cls-1" d="M231.45,292.88c-4.42-12.33-17.35-9.14-17.35-9.14l5.12-.42c0-16.68-16-23.47-16-23.47l-3.3-1c-26.13-10-40.56,12.36-40.56,12.36l-.91.9c-8.85-12.71-32-11.7-42,.68l6.52,20.4Z"/><path class="cls-3" d="M8.93,293c0-14.14,10.12-23.46,22.59-23.46a20.37,20.37,0,0,1,8.92,2.08c6.07-11.07,16.9-18.43,29.24-18.43,10.73,0,20.32,5.57,26.64,14.29,9.51-2.42,19.74,2,25.27,11.84A32.25,32.25,0,0,1,125.28,293"/><path class="cls-4" d="M105.72,293H8.46c0-14.13,10.12-23.45,22.59-23.45A20.36,20.36,0,0,1,40,271.61,36.36,36.36,0,0,1,54.55,256.9C58.81,263.65,75,286,105.72,293Z"/><path class="cls-5" d="M10.93,292.59c1-12.7,8.1-20.47,20.24-21.88,3.12-.36,8.33,1.13,10,3.25,6-11.06,16.82-19.2,29.09-19.2,10.65,0,18.91,6.63,25.41,14.26,9.44-2.41,19.07,1.87,24.56,11.72a25.37,25.37,0,0,1,3.53,12"/><path class="cls-6" d="M109.19,159.14,79.77,254.7s13.8,6.08,16.43,13.05a21.22,21.22,0,0,1,20,4.94,30.92,30.92,0,0,1,24.86-9.89l-20.44-99.67"/><line class="cls-5" x1="109.19" y1="163.14" x2="83.53" y2="248.49"/><path class="cls-7" d="M107.24,150a3.29,3.29,0,0,0-.58.62,22.08,22.08,0,0,0-3.26,23.29l5.83,13.22a2.57,2.57,0,0,0,4.2.46L124,174.09a22.18,22.18,0,0,0,3.34-22l-.4-1"/><path class="cls-8" d="M108.07,150.13a3.19,3.19,0,0,0-.59.62A22.06,22.06,0,0,0,104.23,174l5.82,13.23"/><path class="cls-9" d="M110,150.27a2.62,2.62,0,0,0-.44.47A16.88,16.88,0,0,0,107,168.48l4.43,10.08a2,2,0,0,0,3.19.35l8-10.3a16.92,16.92,0,0,0,2.54-16.74l-.3-.77"/><path class="cls-10" d="M111.75,150.27a2.09,2.09,0,0,0-.31.33,11.85,11.85,0,0,0-1.74,12.45l3.11,7.07a1.37,1.37,0,0,0,2.24.24l5.6-7.23a11.87,11.87,0,0,0,1.78-11.74l-.21-.54"/><path class="cls-7" d="M120.11,151c-.2,2.43-1.94,4.26-3.89,4.1s-3.36-2.26-3.16-4.68"/><path class="cls-11" d="M99.49,141.73l-.32,5.63a2.2,2.2,0,0,0,2.06,2.31L136,151.6a2.18,2.18,0,0,0,2.3-2l.3-5.39"/><path class="cls-12" d="M99.75,137.62l-.32,5.63a2.18,2.18,0,0,0,2.06,2.3l34.8,1.94a2.18,2.18,0,0,0,2.3-2.06l.3-5.38"/><path class="cls-13" d="M99.49,141.73l-.32,5.63a2.2,2.2,0,0,0,2.06,2.31L136,151.6a2.18,2.18,0,0,0,2.3-2l.3-5.39"/><path class="cls-13" d="M101.64,167.66a22.72,22.72,0,0,0,1.76,6.27l5.83,13.22a2.57,2.57,0,0,0,4.2.46L124,174.09a22.18,22.18,0,0,0,3.34-22l-.4-1"/><path class="cls-13" d="M107.24,150a3.29,3.29,0,0,0-.58.62,22.25,22.25,0,0,0-5.2,13.83"/><path class="cls-14" d="M120.11,151c-.2,2.43-1.94,4.26-3.89,4.1s-3.36-2.26-3.16-4.68"/><path class="cls-2" d="M140.74,144l-43.91-2.44a7.76,7.76,0,0,1-7.31-8.08c1.07-25.13,6.79-97.63,37.19-133C153,39,150.62,111.7,148.9,136.8A7.75,7.75,0,0,1,140.74,144Z"/><path class="cls-15" d="M149,136.77a7.74,7.74,0,0,1-8.16,7.21l-7.44-.41a7.73,7.73,0,0,0,5.21-6.8c1.61-23.53,3.8-88.89-17.59-128.7a82.54,82.54,0,0,1,5.79-7.6C153.08,39,150.71,111.67,149,136.77Z"/><path class="cls-15" d="M133.19,143.18a6.56,6.56,0,0,1-.62.23l.61,0v0l-4.38-.31c1.82-25.51,3.13-88.92-12.32-128.06Q117.7,13,119,11C136.44,50.57,135.09,116.76,133.19,143.18Z"/><path class="cls-16" d="M139.2,26.75,111.43,25.2l.13-.28c.31-.67.62-1.34,1-2,.08-.18.17-.36.26-.54.34-.71.69-1.42,1-2.12.14-.28.28-.56.43-.84.3-.59.6-1.17.92-1.74a.91.91,0,0,1,.07-.14l21,1.17C137.31,21.31,138.29,24,139.2,26.75Z"/><path class="cls-17" d="M138.64,26.46l-10.53-.59q-1.37-4.12-3-8l10.56.59C136.75,21,137.73,23.71,138.64,26.46Z"/><line class="cls-11" x1="81.46" y1="94.07" x2="79.53" y2="128.71"/><line class="cls-11" x1="83.36" y1="99.34" x2="83.23" y2="101.64"/><line class="cls-11" x1="83.11" y1="103.89" x2="82.98" y2="106.18"/><line class="cls-11" x1="82.85" y1="108.43" x2="82.72" y2="110.73"/><line class="cls-11" x1="82.6" y1="112.98" x2="82.47" y2="115.28"/><line class="cls-11" x1="82.34" y1="117.6" x2="82.22" y2="119.75"/><line class="cls-11" x1="82.09" y1="122.14" x2="81.97" y2="124.3"/><path class="cls-11" d="M94.28,85.63C80.58,97,59.26,102.77,54.35,104a1.49,1.49,0,0,0-1.12,1.37L50,162.83h0a19,19,0,0,0,7-7c2.6-4.53,6.81-11.68,10.72-17.31A28.48,28.48,0,0,1,78.85,129l11.2-5.37"/><line class="cls-18" x1="53.19" y1="127.51" x2="52.35" y2="143.32"/><line class="cls-19" x1="52.93" y1="132.03" x2="52.6" y2="138.42"/><path class="cls-18" d="M53.7,121.17l.81-14.83a.85.85,0,0,1,.61-.76,156.73,156.73,0,0,0,16.74-5.4"/><path class="cls-19" d="M54.07,114.34l.44-8a.85.85,0,0,1,.61-.76c1.07-.28,3.52-1,6.38-1.81"/><polygon class="cls-12" points="79.54 129.02 77.8 130 79.46 95.33 81.22 94.17 79.54 129.02"/><line class="cls-11" x1="161.55" y1="98.96" x2="159.62" y2="133.6"/><line class="cls-11" x1="159.08" y1="103.98" x2="158.95" y2="106.28"/><line class="cls-11" x1="158.82" y1="108.53" x2="158.7" y2="110.82"/><line class="cls-11" x1="158.57" y1="113.07" x2="158.44" y2="115.37"/><line class="cls-11" x1="158.32" y1="117.62" x2="158.19" y2="119.92"/><line class="cls-11" x1="158.06" y1="122.24" x2="157.94" y2="124.39"/><line class="cls-11" x1="157.81" y1="126.78" x2="157.69" y2="128.94"/><path class="cls-11" d="M149.72,89.13c12.35,12.79,32.89,20.92,37.63,22.72a1.51,1.51,0,0,1,1,1.49l-3.2,57.42h0a18.83,18.83,0,0,1-6.19-7.75c-2.08-4.79-5.48-12.36-8.73-18.39a28.53,28.53,0,0,0-10-10.64l-10.54-6.59"/><path class="cls-12" d="M93.76,86.77,94.13,88c-.66,4.09-.85,7.61-1.3,11.19-.16,1.21-.33,2.86-.46,4-.88,7.61-1.7,14-2.12,20.3l-5,3.32c.58-9.49,1.71-22.39,3.87-36.62A58.08,58.08,0,0,0,93.76,86.77Z"/><path class="cls-12" d="M149.51,89.62v.13c.79,14.71.62,28.13.23,38.17l4,2.47c.43-9.5.67-22.45,0-36.82A57.52,57.52,0,0,1,149.51,89.62Z"/><rect class="cls-15" x="118.28" y="106.15" width="2" height="59.13" transform="translate(-22.86 247.26) rotate(-86.81)"/><path class="cls-20" d="M111.7,27.48S101.76,46.75,96.3,80"/><path class="cls-13" d="M97.29,70c1.55-7.32,3.4-14.73,5.61-22"/><path class="cls-13" d="M92.3,100.18c1-8,1.8-14.81,3.53-23.66"/><line class="cls-21" x1="114.75" y1="134.26" x2="148.68" y2="136.15"/><line class="cls-21" x1="107.98" y1="133.88" x2="111.46" y2="134.08"/><line class="cls-21" x1="89.64" y1="132.86" x2="105.06" y2="133.72"/><line class="cls-21" x1="80.91" y1="104.34" x2="79.53" y2="129.13"/><line class="cls-21" x1="81.46" y1="94.49" x2="81.11" y2="100.89"/><line class="cls-22" x1="83.36" y1="99.76" x2="83.23" y2="102.06"/><line class="cls-22" x1="83.11" y1="104.31" x2="82.98" y2="106.61"/><line class="cls-22" x1="82.85" y1="108.86" x2="82.72" y2="111.15"/><line class="cls-22" x1="82.6" y1="113.4" x2="82.47" y2="115.7"/><line class="cls-23" x1="82.34" y1="118.02" x2="82.22" y2="120.17"/><line class="cls-23" x1="82.09" y1="122.57" x2="81.97" y2="124.72"/><path class="cls-21" d="M68.74,137.62a28.48,28.48,0,0,1,10.14-8.17l11.21-5.38"/><path class="cls-21" d="M58.3,154.09c2.44-4.18,5.74-9.67,8.9-14.31"/><path class="cls-21" d="M94.31,86c-13.69,11.34-35,17.14-39.92,18.4a1.51,1.51,0,0,0-1.13,1.37l-3.2,57.43h0a19,19,0,0,0,5.29-4.49"/><line class="cls-21" x1="160.86" y1="111.36" x2="159.62" y2="133.6"/><line class="cls-21" x1="161.55" y1="98.96" x2="161.1" y2="106.96"/><line class="cls-22" x1="159.08" y1="103.98" x2="158.95" y2="106.28"/><line class="cls-22" x1="158.82" y1="108.53" x2="158.7" y2="110.82"/><line class="cls-22" x1="158.57" y1="113.07" x2="158.44" y2="115.37"/><line class="cls-22" x1="158.32" y1="117.62" x2="158.19" y2="119.92"/><line class="cls-23" x1="158.06" y1="122.24" x2="157.94" y2="124.39"/><line class="cls-23" x1="157.81" y1="126.78" x2="157.69" y2="128.94"/><path class="cls-21" d="M187.28,131.93l-2.16,38.83h0a18.83,18.83,0,0,1-6.19-7.75c-2.08-4.79-5.48-12.36-8.73-18.39a28.53,28.53,0,0,0-10-10.64l-10.54-6.59"/><path class="cls-21" d="M149.72,89.13c12.35,12.79,32.89,20.92,37.63,22.72a1.51,1.51,0,0,1,1,1.49l-.73,13"/><line class="cls-21" x1="101.87" y1="182.35" x2="79.77" y2="254.7"/><line class="cls-21" x1="124.82" y1="182.35" x2="141.09" y2="262.8"/><line class="cls-13" x1="103.9" y1="196.59" x2="97.62" y2="218.35"/><line class="cls-13" x1="92.56" y1="234.21" x2="89.5" y2="244.8"/><line class="cls-13" x1="35.1" y1="260.34" x2="2.1" y2="200.66"/><line class="cls-13" x1="16.75" y1="192.56" x2="49.75" y2="252.24"/><line class="cls-24" x1="2.1" y1="200.66" x2="27.54" y2="212.07"/><line class="cls-24" x1="16.75" y1="192.56" x2="12.88" y2="220.17"/><line class="cls-24" x1="12.88" y1="220.17" x2="38.32" y2="231.58"/><line class="cls-24" x1="27.54" y1="212.07" x2="23.67" y2="239.68"/><line class="cls-24" x1="23.34" y1="239.08" x2="48.78" y2="250.49"/><line class="cls-24" x1="38" y1="230.98" x2="34.13" y2="258.59"/><line class="cls-13" x1="184.84" y1="251.44" x2="206.53" y2="158.17"/><line class="cls-13" x1="229.43" y1="163.5" x2="207.74" y2="256.76"/><line class="cls-24" x1="206.53" y1="158.17" x2="222.34" y2="193.98"/><line class="cls-24" x1="229.43" y1="163.5" x2="199.44" y2="188.66"/><line class="cls-24" x1="199.44" y1="188.66" x2="215.25" y2="224.47"/><line class="cls-24" x1="222.34" y1="193.98" x2="192.35" y2="219.15"/><line class="cls-24" x1="192.56" y1="218.22" x2="208.37" y2="254.03"/><line class="cls-24" x1="215.46" y1="223.54" x2="185.47" y2="248.7"/><line class="cls-13" x1="130.08" y1="234.32" x2="131.21" y2="240.63"/><line class="cls-13" x1="123.02" y1="195.13" x2="129.04" y2="228.55"/><line class="cls-13" x1="133.12" y1="248.49" x2="134.04" y2="255.7"/><line class="cls-13" x1="117.1" y1="201.62" x2="120.52" y2="226.82"/><line class="cls-13" x1="121.59" y1="236.16" x2="122.23" y2="241.66"/><path class="cls-13" d="M116.41,272.76c10-12.38,33.77-14.33,42.92.89"/><path class="cls-13" d="M159.33,271.18s14.43-22.35,40.56-12.36"/><path class="cls-13" d="M203.19,259.85s16,6.79,16,23.47"/><path class="cls-13" d="M214.1,283.74s12.93-3.19,17.35,9.14"/><line class="cls-25" x1="1.5" y1="182.25" x2="14.99" y2="182.25"/><path class="cls-25" d="M21.41,182.25h6.74s2.25-6.21,9.2-3.85c0,0,1.06-10.36,14-10.36s13.71,15.49,13.71,15.49h7"/><line class="cls-21" x1="187.12" y1="187.84" x2="178.14" y2="187.84"/><path class="cls-21" d="M173.87,187.84h-4.49a4.59,4.59,0,0,0-6.12-2.57s-.71-6.89-9.33-6.89-9.12,10.31-9.12,10.31h-4.76"/><line class="cls-26" x1="103.51" y1="46" x2="103.93" y2="44.68"/><line class="cls-13" x1="96.76" y1="72.09" x2="96.47" y2="73.51"/><circle class="cls-27" cx="56.87" cy="156.53" r="0.54"/><polyline class="cls-28" points="119.02 24.99 130.93 25.69 138.35 26.1 136.35 20.67"/><path class="cls-13" d="M104.53,42.84C109.85,26.78,117,11.76,126.71.5,153,39,150.62,111.7,148.9,136.8a7.75,7.75,0,0,1-8.16,7.21l-43.91-2.44a7.76,7.76,0,0,1-7.31-8.08c.3-7.06,1-17.87,2.45-30.55"/><line class="cls-29" x1="129.76" y1="18.34" x2="136.23" y2="18.7"/><line class="cls-29" x1="121.33" y1="17.87" x2="128.35" y2="18.26"/><line class="cls-29" x1="115.22" y1="17.53" x2="119.26" y2="17.75"/><line class="cls-29" x1="111.7" y1="25.22" x2="138.92" y2="26.73"/><circle class="cls-1" cx="120.83" cy="106.61" r="18.98"/><path class="cls-15" d="M129.87,102.8h0q-.44-.18-.87-.33c.06-.19.12-.39.17-.59.85-3.2.56-5.84-.88-6.78s-3.76-.17-6.23,1.75l-.71.59-.44-.45c-2.34-2.33-4.76-3.39-6.3-2.61s-2,3.17-1.6,6.28c0,.3.1.61.16.91-.36.08-.7.17-1,.27-3,.85-4.89,2.33-5,4s1.8,3.51,4.75,4.71c.24.1.48.19.73.27-.1.32-.19.64-.27,1-.74,3-.43,5.4.95,6.3s3.93.2,6.44-1.77c.2-.15.4-.32.6-.49.23.24.46.48.7.71,2.22,2.14,4.46,3.07,5.93,2.33s2.13-3.32,1.69-6.48c0-.24-.08-.49-.13-.74l.52-.13c3.19-.87,5.32-2.44,5.42-4.16S132.76,104,129.87,102.8Zm-7.09-5c2.12-1.64,4-2.23,4.87-1.69h0c.89.58,1.12,2.73.39,5.5,0,.18-.1.36-.15.54a28.12,28.12,0,0,0-3.62-.78,27,27,0,0,0-2.15-3c.22-.19.43-.37.66-.55Zm-7.63,9.89c.22.5.46,1,.7,1.46s.51,1,.78,1.46a23.71,23.71,0,0,1-2.5-.55Q114.57,108.88,115.15,107.66Zm.16-2.75a22.84,22.84,0,0,1-.74-2.42c.79-.13,1.63-.22,2.5-.28-.31.43-.62.88-.91,1.33s-.58.91-.86,1.37Zm.54,1.41c.4-.73.83-1.44,1.29-2.14h0q.67-1.05,1.44-2c.81,0,1.65,0,2.49,0s1.68.13,2.49.24c.42.71.82,1.44,1.2,2.18s.72,1.49,1,2.26c-.4.73-.84,1.45-1.29,2.15h0c-.46.7-.93,1.38-1.43,2-.82,0-1.66,0-2.51,0s-1.68-.12-2.47-.22c-.43-.72-.84-1.45-1.22-2.2s-.72-1.5-1-2.27Zm9.64,3.33c.31-.46.6-.93.88-1.4h0a25.14,25.14,0,0,1,.78,2.46,24.64,24.64,0,0,1-2.57.29C124.89,110.56,125.2,110.11,125.49,109.65Zm1-4.11c-.23-.5-.46-1-.71-1.47h0c-.24-.48-.49-.95-.76-1.42.87.16,1.7.36,2.47.58C127.22,104,126.88,104.78,126.51,105.54Zm-5.26-6.43h0a22.6,22.6,0,0,1,1.5,2c-1.07-.11-2.15-.17-3.23-.18C120.09,100.29,120.67,99.67,121.25,99.11Zm-6.1-3.69c.94-.48,2.92.39,4.94,2.4l.39.41A26.89,26.89,0,0,0,118,101a30,30,0,0,0-3.68.37c-.06-.28-.1-.57-.14-.85h0C113.81,97.84,114.26,95.87,115.15,95.42ZM113,109.68c-.22-.07-.44-.16-.66-.25a9.84,9.84,0,0,1-3.09-1.87,2.4,2.4,0,0,1-.93-1.68c.06-1,1.61-2.19,4.13-2.92l1-.24a27.4,27.4,0,0,0,1.14,3.53A29.29,29.29,0,0,0,113,109.68Zm6,5.69a9.92,9.92,0,0,1-3.16,1.75h0a2.39,2.39,0,0,1-1.92,0c-.84-.54-1.09-2.49-.46-5,.08-.3.16-.6.25-.9a26.66,26.66,0,0,0,3.66.74,28.36,28.36,0,0,0,2.18,3Zm1.41-1.25c-.52-.63-1-1.32-1.53-2.06q.78.07,1.59.12c.56,0,1.11,0,1.66,0-.54.66-1.12,1.29-1.72,1.89Zm7,2a2.4,2.4,0,0,1-1,1.65c-.89.45-2.7-.3-4.59-2.12-.21-.21-.43-.43-.65-.67a26.91,26.91,0,0,0,2.45-2.78,27.54,27.54,0,0,0,3.74-.37c0,.23.08.45.11.67h0A10.21,10.21,0,0,1,127.45,116.14Zm1.31-5.78h0l-.46.11a29.43,29.43,0,0,0-1.19-3.54,27.28,27.28,0,0,0,1.52-3.35l.8.3c2.48,1,3.95,2.39,3.89,3.39S131.52,109.61,128.76,110.36Z"/><path class="cls-15" d="M120.69,109a2.45,2.45,0,1,0-2.3-2.6h0a2.45,2.45,0,0,0,2.3,2.59Z"/><path class="cls-21" d="M102.3,101.18a19.25,19.25,0,0,1,4.3-7.62"/><path class="cls-21" d="M109.82,90.75a19.27,19.27,0,1,1-7.93,12.13"/><line class="cls-21" x1="0.39" y1="292.97" x2="252.63" y2="292.97"/><path class="cls-21" d="M37.31,270.38s8,2.13,11.6,9.16"/><path class="cls-5" d="M86.84,275.94s4.42-6.83,12-7.3"/><path class="cls-21" d="M97.68,267.18s-8.11,1.5-12.28,8.23"/><path class="cls-30" d="M8.93,293c0-14.14,10.12-23.46,22.59-23.46a20.37,20.37,0,0,1,8.92,2.08c6.07-11.07,16.9-18.43,29.24-18.43,10.73,0,20.32,5.57,26.64,14.29,9.51-2.42,19.74,2,25.27,11.84A32.25,32.25,0,0,1,125.28,293"/><path class="cls-13" d="M142,268s12.11,3,13.66,12.31c0,0,9.07-2,18.39,5.59"/><circle class="cls-27" cx="108.06" cy="92.19" r="0.54"/><line class="cls-13" x1="22.7" y1="195.56" x2="10.46" y2="202.15"/><line class="cls-13" x1="24.96" y1="198.38" x2="12.72" y2="204.97"/><line class="cls-13" x1="231.7" y1="172.97" x2="218.28" y2="169.35"/><line class="cls-13" x1="231.97" y1="177.29" x2="218.55" y2="173.68"/><line class="cls-31" x1="104.3" y1="241.21" x2="103.45" y2="248.55"/><line class="cls-31" x1="110.23" y1="193.49" x2="105.08" y2="234.1"/><line class="cls-21" x1="75.59" y1="119.32" x2="74.75" y2="131.65"/><line class="cls-25" x1="75.12" y1="183.54" x2="77.52" y2="183.54"/><line class="cls-25" x1="135.92" y1="188.69" x2="138.32" y2="188.69"/></g></g></svg>